<svg width="50" height="50" viewBox="0 0 50 50" fill="none" xmlns="http://www.w3.org/2000/svg">
<rect opacity="0.1" x="0.5" y="0.5" width="49" height="49" rx="9.5" stroke="#1D1E1C"/>
<path d="M31.5 19H19.5C19.1022 19 18.7206 19.158 18.4393 19.4393C18.158 19.7206 18 20.1022 18 20.5V29.5C18 29.8978 18.158 30.2794 18.4393 30.5607C18.7206 30.842 19.1022 31 19.5 31H31.5C31.8978 31 32.2794 30.842 32.5607 30.5607C32.842 30.2794 33 29.8978 33 29.5V20.5C33 20.1022 32.842 19.7206 32.5607 19.4393C32.2794 19.158 31.8978 19 31.5 19ZM31.5 22.525L25.5 26.5255L19.5 22.525V20.7227L25.5 24.7225L31.5 20.7227V22.525Z" fill="#1D1E1C"/>
</svg>
