<svg width="50" height="50" viewBox="0 0 50 50" fill="none" xmlns="http://www.w3.org/2000/svg">
<rect opacity="0.1" x="0.5" y="0.5" width="49" height="49" rx="9.5" stroke="#1D1E1C"/>
<path fill-rule="evenodd" clip-rule="evenodd" d="M31.9999 23.4C32.0235 28.552 25.5 33 25.5 33C25.4961 32.9973 25.4908 32.9936 25.484 32.9888C25.0576 32.6928 18.9769 28.4711 19.0001 23.396C19.0001 19.8712 21.9161 17 25.5 17C29.0839 17 31.9999 19.8712 31.9999 23.4ZM25.5 25.8C26.8462 25.8 27.9375 24.7255 27.9375 23.4C27.9375 22.0745 26.8462 21 25.5 21C24.1539 21 23.0626 22.0745 23.0626 23.4C23.0626 24.7255 24.1539 25.8 25.5 25.8Z" fill="#1D1E1C"/>
</svg>
