<svg width="50" height="50" viewBox="0 0 50 50" fill="none" xmlns="http://www.w3.org/2000/svg">
<rect opacity="0.1" x="0.5" y="0.5" width="49" height="49" rx="9.5" stroke="#1D1E1C"/>
<path fill-rule="evenodd" clip-rule="evenodd" d="M33.0002 25.1045H31.4212C31.4212 21.9024 29.0939 19.5789 25.887 19.5789V18C29.9426 18 33.0002 21.0545 33.0002 25.1045ZM28.2634 25.1053C28.2634 23.445 27.5552 22.7368 25.895 22.7368V21.1579C28.441 21.1579 29.8423 22.5592 29.8423 25.1053H28.2634ZM28.0406 26.8289C28.2455 26.8225 28.4448 26.8961 28.5965 27.0339L31.805 29.9518C31.9569 30.0901 32.049 30.2821 32.0617 30.4871C32.0744 30.6922 32.0066 30.8941 31.8729 31.05L30.4044 32.7639C30.2681 32.901 30.0859 32.9829 29.8929 32.9937C29.8668 32.9953 29.7689 33 29.6094 33C28.5184 33 24.5568 32.7687 21.3942 29.6068C17.7689 25.98 17.9947 21.3047 18.0065 21.1074C18.0175 20.9143 18.099 20.732 18.2355 20.595L19.9486 19.1258C20.1046 18.9921 20.3066 18.9245 20.5117 18.9373C20.7167 18.9501 20.9087 19.0424 21.0468 19.1945L23.9639 22.4021C24.102 22.5537 24.1756 22.7531 24.1693 22.9581C24.163 23.163 24.0771 23.3575 23.93 23.5003L21.9886 25.3903C22.0731 25.8418 22.3581 26.7584 23.2992 27.7003C24.2402 28.6389 25.1544 28.9239 25.6092 29.0108L27.4984 27.0679C27.6413 26.9209 27.8357 26.8352 28.0406 26.8289Z" fill="#1D1E1C"/>
</svg>
